<svg width="22" height="22" viewBox="0 0 22 22" fill="none" xmlns="http://www.w3.org/2000/svg">
    <path d="M10.2115 1.01074C10.6119 0.497507 11.3881 0.497507 11.7885 1.01074L15.3373 5.56003C15.4529 5.70817 15.6079 5.82077 15.7845 5.8849L21.2078 7.85425C21.8196 8.07643 22.0595 8.81464 21.6951 9.35401L18.4651 14.135C18.3599 14.2907 18.3007 14.4728 18.2943 14.6606L18.0972 20.427C18.075 21.0776 17.447 21.5338 16.8214 21.354L11.2764 19.7595C11.0958 19.7075 10.9042 19.7075 10.7236 19.7595L5.17856 21.3539C4.55298 21.5338 3.92502 21.0776 3.90279 20.427L3.70571 14.6606C3.69929 14.4728 3.6401 14.2907 3.53491 14.135L0.304942 9.35401C-0.0594503 8.81464 0.180409 8.07643 0.792241 7.85425L6.21553 5.8849C6.39214 5.82077 6.54711 5.70817 6.66267 5.56003L10.2115 1.01074Z" fill="#F2B90D"/>
</svg>
