<svg width="20" height="20" viewBox="0 0 20 22" fill="none" xmlns="http://www.w3.org/2000/svg">
    <path d="M9.73114 21.3941C4.78114 21.2541 0.651142 17.1241 0.511142 12.1741C0.351142 6.80407 4.67114 2.39407 10.0011 2.39407V1.10407C10.0011 0.654073 10.5411 0.434073 10.8511 0.754073L13.6411 3.54407C13.8411 3.74407 13.8411 4.05407 13.6411 4.25407L10.8511 7.04407C10.5411 7.35407 10.0011 7.13407 10.0011 6.68407V5.39407C6.42114 5.39407 3.50114 8.31407 3.50114 11.8941C3.50114 14.1041 4.61114 16.0641 6.31114 17.2441C6.82114 16.3241 7.94114 15.6241 9.29114 15.4441C9.20114 14.7541 9.03114 14.0241 8.80114 13.4141C8.47114 13.6941 8.05114 13.8741 7.58114 13.8941C6.44114 13.9441 5.50114 12.9041 5.50114 11.7641V10.9041C5.50114 10.6141 5.45114 10.3341 5.36114 10.0741C5.24114 9.73407 5.50114 9.38407 5.86114 9.41407C7.16114 9.50407 9.46114 9.93407 9.50114 11.8941C9.50114 12.1841 9.44114 12.4541 9.33114 12.6941C8.91114 12.3741 8.47114 12.0941 8.00114 11.8941C8.58114 12.3241 9.37114 13.2641 10.0011 14.4941C10.6711 12.8741 11.6811 11.2241 13.0011 9.89407C12.2411 10.4141 11.5311 11.0141 10.8711 11.7041C10.6111 11.2841 10.4711 10.7741 10.5111 10.2341C10.5911 8.89407 11.7911 7.89407 13.1311 7.89407H14.0011C14.5611 7.89407 14.9711 7.75407 15.2811 7.58407C15.6211 7.39407 16.0411 7.63407 16.0311 8.02407C15.9911 9.76407 15.5611 12.8941 13.0011 12.8941C12.5111 12.8941 12.0611 12.7541 11.6811 12.5141C11.4411 13.1541 11.0911 14.2741 10.9211 15.4741C12.1811 15.6941 13.2011 16.3641 13.6911 17.2441C15.2611 16.1541 16.3311 14.3941 16.4811 12.3741C16.5011 12.1141 16.7111 11.8941 16.9811 11.8941H18.8011C19.2711 11.8941 19.5111 12.1341 19.4911 12.4141C19.2111 17.5041 14.9111 21.5341 9.73114 21.3941Z" fill="#16803D"/>
</svg>
