<svg width="20" height="20" viewBox="0 0 16 20" fill="none" xmlns="http://www.w3.org/2000/svg">
    <path d="M8.66 0.41376C8.28 0.0837598 7.71 0.0837598 7.33 0.41376C2.45 4.71376 0 8.45376 0 11.6338C0 16.6138 3.8 19.8338 8 19.8338C12.2 19.8338 16 16.6138 16 11.6338C16 8.45376 13.55 4.71376 8.66 0.41376ZM3.83 11.8338C4.2 11.8338 4.5 12.0938 4.57 12.4538C4.98 14.6738 6.85 15.4338 8.21 15.3238C8.64 15.3038 9 15.6438 9 16.0738C9 16.4738 8.68 16.8038 8.28 16.8238C6.15 16.9538 3.66 15.7338 3.09 12.7038C3.01 12.2538 3.37 11.8338 3.83 11.8338Z" fill="#16803D"/>
</svg>
